REM DIRINDEX 1\3,1\4,1\5,1\6,1\2\7,1\2\8,1\2\9,1\2\10,1\2\11
REM DIRNAME cjc021,folder01,folder02,folder03,folder04,folder05,folder06,folder07,folder08,folder09,folder10
TITLE ""
FILE "DISC5Track38.mp3" MP3
  TRACK 01 AUDIO
    TITLE "0:"
    INDEX 01 00:00:00
  TRACK 02 AUDIO
    TITLE "3:cjc021_5840"
    INDEX 01 00:00:21
  TRACK 03 AUDIO
    TITLE "0:"
    INDEX 01 00:01:44
  TRACK 04 AUDIO
    TITLE "4:cjc021_5841"
    INDEX 01 00:03:19
  TRACK 05 AUDIO
    TITLE "0:"
    INDEX 01 00:04:40
  TRACK 06 AUDIO
    TITLE "5:cjc021_5842"
    INDEX 01 00:05:01
  TRACK 07 AUDIO
    TITLE "0:"
    INDEX 01 00:07:45
  TRACK 08 AUDIO
    TITLE "3:cjc021_5843"
    INDEX 01 00:09:08
  TRACK 09 AUDIO
    TITLE "0:"
    INDEX 01 00:10:51
  TRACK 10 AUDIO
    TITLE "4:cjc021_5844"
    INDEX 01 00:12:26
  TRACK 11 AUDIO
    TITLE "0:"
    INDEX 01 00:13:71
  TRACK 12 AUDIO
    TITLE "5:cjc021_5845"
    INDEX 01 00:14:29
  TRACK 13 AUDIO
    TITLE "0:"
    INDEX 01 00:17:16
  TRACK 14 AUDIO
    TITLE "3:cjc021_5846"
    INDEX 01 00:18:50
  TRACK 15 AUDIO
    TITLE "0:"
    INDEX 01 00:20:00
  TRACK 16 AUDIO
    TITLE "4:cjc021_5847"
    INDEX 01 00:21:51
  TRACK 17 AUDIO
    TITLE "0:"
    INDEX 01 00:22:74
  TRACK 18 AUDIO
    TITLE "5:cjc021_5848"
    INDEX 01 00:23:36
  TRACK 19 AUDIO
    TITLE "0:"
    INDEX 01 00:25:03
  TRACK 20 AUDIO
    TITLE "3:cjc021_5849"
    INDEX 01 00:26:36
  TRACK 21 AUDIO
    TITLE "0:"
    INDEX 01 00:27:39
  TRACK 22 AUDIO
    TITLE "4:cjc021_5850"
    INDEX 01 00:29:13
  TRACK 23 AUDIO
    TITLE "0:"
    INDEX 01 00:30:18
  TRACK 24 AUDIO
    TITLE "5:cjc021_5851"
    INDEX 01 00:30:52
  TRACK 25 AUDIO
    TITLE "0:"
    INDEX 01 00:32:39
  TRACK 26 AUDIO
    TITLE "3:cjc021_5852"
    INDEX 01 00:34:00
  TRACK 27 AUDIO
    TITLE "0:"
    INDEX 01 00:35:19
  TRACK 28 AUDIO
    TITLE "4:cjc021_5853"
    INDEX 01 00:36:70
  TRACK 29 AUDIO
    TITLE "0:"
    INDEX 01 00:38:10
  TRACK 30 AUDIO
    TITLE "5:cjc021_5854"
    INDEX 01 00:38:49
  TRACK 31 AUDIO
    TITLE "0:"
    INDEX 01 00:41:38
  TRACK 32 AUDIO
    TITLE "3:cjc021_5855"
    INDEX 01 00:43:01
  TRACK 33 AUDIO
    TITLE "0:"
    INDEX 01 00:44:22
  TRACK 34 AUDIO
    TITLE "4:cjc021_5856"
    INDEX 01 00:46:00
  TRACK 35 AUDIO
    TITLE "0:"
    INDEX 01 00:47:19
  TRACK 36 AUDIO
    TITLE "5:cjc021_5857"
    INDEX 01 00:47:56
  TRACK 37 AUDIO
    TITLE "0:"
    INDEX 01 00:50:56
  TRACK 38 AUDIO
    TITLE "3:cjc021_5858"
    INDEX 01 00:52:16
  TRACK 39 AUDIO
    TITLE "0:"
    INDEX 01 00:53:31
  TRACK 40 AUDIO
    TITLE "4:cjc021_5859"
    INDEX 01 00:55:06
  TRACK 41 AUDIO
    TITLE "0:"
    INDEX 01 00:56:20
  TRACK 42 AUDIO
    TITLE "5:cjc021_5860"
    INDEX 01 00:56:59
  TRACK 43 AUDIO
    TITLE "0:"
    INDEX 01 00:58:69
  TRACK 44 AUDIO
    TITLE "3:cjc021_5861"
    INDEX 01 01:00:29
  TRACK 45 AUDIO
    TITLE "0:"
    INDEX 01 01:01:58
  TRACK 46 AUDIO
    TITLE "4:cjc021_5862"
    INDEX 01 01:03:33
  TRACK 47 AUDIO
    TITLE "0:"
    INDEX 01 01:04:64
  TRACK 48 AUDIO
    TITLE "5:cjc021_5863"
    INDEX 01 01:05:22
  TRACK 49 AUDIO
    TITLE "0:"
    INDEX 01 01:08:46
  TRACK 50 AUDIO
    TITLE "3:cjc021_5864"
    INDEX 01 01:10:04
  TRACK 51 AUDIO
    TITLE "0:"
    INDEX 01 01:11:17
  TRACK 52 AUDIO
    TITLE "4:cjc021_5865"
    INDEX 01 01:12:68
  TRACK 53 AUDIO
    TITLE "0:"
    INDEX 01 01:14:04
  TRACK 54 AUDIO
    TITLE "5:cjc021_5866"
    INDEX 01 01:14:39
  TRACK 55 AUDIO
    TITLE "0:"
    INDEX 01 01:16:26
  TRACK 56 AUDIO
    TITLE "3:cjc021_5867"
    INDEX 01 01:17:61
  TRACK 57 AUDIO
    TITLE "0:"
    INDEX 01 01:18:70
  TRACK 58 AUDIO
    TITLE "4:cjc021_5868"
    INDEX 01 01:20:46
  TRACK 59 AUDIO
    TITLE "0:"
    INDEX 01 01:21:53
  TRACK 60 AUDIO
    TITLE "5:cjc021_5869"
    INDEX 01 01:22:15
  TRACK 61 AUDIO
    TITLE "0:"
    INDEX 01 01:24:61
